<svg width="139" height="27" viewBox="0 0 139 27" fill="none" xmlns="http://www.w3.org/2000/svg">
<path d="M12.9394 23.51C11.3794 23.51 10.5994 22.84 10.5994 21.5C10.5994 21.06 10.6594 20.56 10.7794 20C10.9194 19.42 11.1094 18.68 11.3494 17.78C11.6294 16.84 11.8394 16.04 11.9794 15.38C12.1194 14.72 12.1894 14.13 12.1894 13.61C12.1894 12.25 11.5894 11.57 10.3894 11.57C10.0694 11.57 9.73938 11.61 9.39938 11.69L6.99938 23H2.67938L6.75938 3.92L11.1994 3.32L9.72938 10.25H9.96938C10.7494 10.25 11.4694 9.98 12.1294 9.44C12.7894 8.9 13.2994 8.23 13.6594 7.43C14.0394 6.61 14.2294 5.81 14.2294 5.03C14.2294 4.11 13.9494 3.36 13.3894 2.78C12.8494 2.18 12.0294 1.88 10.9294 1.88C9.30938 1.88 7.88938 2.17 6.66938 2.75C5.44938 3.33 4.49938 4.17 3.81937 5.27C3.15938 6.37 2.82938 7.67 2.82938 9.17C2.82938 9.91 2.89938 10.43 3.03938 10.73C3.17938 11.01 3.24938 11.17 3.24938 11.21C2.16938 11.21 1.35938 10.99 0.819375 10.55C0.299375 10.09 0.039375 9.34 0.039375 8.3C0.039375 7.02 0.559375 5.78 1.59938 4.58C2.65938 3.36 4.00938 2.38 5.64938 1.64C7.28938 0.879999 8.92938 0.499998 10.5694 0.499998C12.0694 0.499998 13.3294 0.719998 14.3494 1.16C15.3694 1.6 16.1294 2.19 16.6294 2.93C17.1294 3.65 17.3794 4.44 17.3794 5.3C17.3794 6.24 17.0894 7.18 16.5094 8.12C15.9294 9.06 15.1394 9.83 14.1394 10.43C14.8994 10.65 15.4294 11.02 15.7294 11.54C16.0494 12.04 16.2094 12.67 16.2094 13.43C16.2094 14.01 16.1394 14.63 15.9994 15.29C15.8594 15.93 15.6594 16.73 15.3994 17.69C15.2394 18.31 15.0894 18.92 14.9494 19.52C14.8094 20.12 14.7394 20.62 14.7394 21.02C14.7394 21.48 14.8394 21.89 15.0394 22.25C15.2594 22.61 15.5494 22.86 15.9094 23C14.6894 23.34 13.6994 23.51 12.9394 23.51ZM25.047 2.63C23.707 3.17 22.667 4 21.927 5.12C21.207 6.22 20.847 7.57 20.847 9.17C20.847 9.91 20.917 10.43 21.057 10.73C21.197 11.01 21.267 11.17 21.267 11.21C20.187 11.21 19.377 10.99 18.837 10.55C18.317 10.09 18.057 9.34 18.057 8.3C18.057 7.02 18.577 5.78 19.617 4.58C20.677 3.36 22.027 2.38 23.667 1.64C25.307 0.879999 26.947 0.499998 28.587 0.499998C28.867 0.499998 29.267 0.519999 29.787 0.559999L25.017 23H20.697L25.047 2.63ZM36.477 23.54C35.217 23.54 34.107 23.32 33.147 22.88C32.187 22.44 31.447 21.83 30.927 21.05C30.407 20.25 30.147 19.33 30.147 18.29C30.147 17.41 30.327 16.61 30.687 15.89C31.067 15.17 31.567 14.6 32.187 14.18C32.827 13.76 33.527 13.55 34.287 13.55C34.987 13.55 35.577 13.73 36.057 14.09C36.537 14.43 36.837 14.91 36.957 15.53C35.917 15.53 35.087 15.81 34.467 16.37C33.847 16.91 33.537 17.65 33.537 18.59C33.537 19.45 33.797 20.14 34.317 20.66C34.837 21.18 35.527 21.44 36.387 21.44C37.447 21.44 38.317 21.09 38.997 20.39C39.697 19.67 40.047 18.77 40.047 17.69C40.047 16.75 39.787 15.86 39.267 15.02C38.747 14.18 37.967 13.16 36.927 11.96C35.847 10.72 35.027 9.66 34.467 8.78C33.927 7.88 33.657 6.9 33.657 5.84C33.657 4.8 33.947 3.87 34.527 3.05C35.107 2.21 35.907 1.55 36.927 1.07C37.947 0.589999 39.097 0.349998 40.377 0.349998C41.997 0.349998 43.287 0.729999 44.247 1.49C45.227 2.25 45.717 3.27 45.717 4.55C45.717 5.39 45.507 6.07 45.087 6.59C44.667 7.11 44.117 7.37 43.437 7.37C42.677 7.37 42.067 7.06 41.607 6.44C41.987 6.16 42.287 5.79 42.507 5.33C42.727 4.87 42.837 4.39 42.837 3.89C42.837 3.25 42.647 2.74 42.267 2.36C41.887 1.98 41.367 1.79 40.707 1.79C39.907 1.79 39.247 2.08 38.727 2.66C38.227 3.22 37.977 3.94 37.977 4.82C37.977 5.62 38.207 6.37 38.667 7.07C39.127 7.75 39.847 8.63 40.827 9.71C41.627 10.57 42.267 11.31 42.747 11.93C43.247 12.55 43.667 13.27 44.007 14.09C44.367 14.89 44.547 15.76 44.547 16.7C44.547 17.98 44.187 19.14 43.467 20.18C42.767 21.22 41.797 22.04 40.557 22.64C39.337 23.24 37.977 23.54 36.477 23.54ZM51.9663 23.54C50.1463 23.54 48.7663 23.04 47.8263 22.04C46.9063 21.04 46.4463 19.78 46.4463 18.26C46.4463 17.18 46.6663 16.1 47.1063 15.02C47.5663 13.92 48.2163 12.96 49.0563 12.14C49.8963 11.32 50.8763 10.77 51.9963 10.49C51.3763 10.05 50.9163 9.52 50.6163 8.9C50.3163 8.26 50.1663 7.59 50.1663 6.89C50.1663 5.85 50.4463 4.83 51.0063 3.83C51.5863 2.83 52.3763 2.02 53.3763 1.4C54.3963 0.759999 55.5163 0.439999 56.7363 0.439999C57.9963 0.439999 59.0263 0.769999 59.8263 1.43C60.6263 2.09 61.0263 3.01 61.0263 4.19C61.0263 5.07 60.8063 5.81 60.3663 6.41C59.9263 7.01 59.4063 7.31 58.8063 7.31C58.2663 7.31 57.7963 7.04 57.3963 6.5C57.7563 6.38 58.0663 6.05 58.3263 5.51C58.5863 4.97 58.7163 4.43 58.7163 3.89C58.7163 3.31 58.5563 2.89 58.2363 2.63C57.9163 2.35 57.5263 2.21 57.0663 2.21C56.4863 2.21 55.9563 2.42 55.4763 2.84C55.0163 3.24 54.6563 3.77 54.3963 4.43C54.1363 5.07 54.0063 5.74 54.0063 6.44C54.0063 7.4 54.2563 8.25 54.7563 8.99C55.2563 9.71 56.0163 10.2 57.0363 10.46C56.0163 10.68 55.0963 11.18 54.2763 11.96C53.4563 12.74 52.8163 13.65 52.3563 14.69C51.8963 15.71 51.6663 16.69 51.6663 17.63C51.6663 18.53 51.8963 19.26 52.3563 19.82C52.8363 20.38 53.5563 20.66 54.5163 20.66C55.5163 20.66 56.5563 20.39 57.6363 19.85C58.7363 19.29 59.5463 18.54 60.0663 17.6L60.7563 17.9C59.9763 19.62 58.7763 20.99 57.1563 22.01C55.5363 23.03 53.8063 23.54 51.9663 23.54ZM73.4098 3.92L77.8498 3.32L75.7198 13.34C76.6798 13.26 77.5598 12.84 78.3598 12.08C79.1798 11.32 79.8198 10.38 80.2798 9.26C80.7398 8.14 80.9698 7.04 80.9698 5.96C80.9698 4.76 80.6598 3.78 80.0398 3.02C79.4198 2.26 78.4898 1.88 77.2498 1.88C74.8098 1.88 72.8998 2.52 71.5198 3.8C70.1598 5.08 69.4798 6.87 69.4798 9.17C69.4798 9.91 69.5498 10.43 69.6898 10.73C69.8298 11.01 69.8998 11.17 69.8998 11.21C68.8198 11.21 68.0098 10.99 67.4698 10.55C66.9498 10.09 66.6898 9.34 66.6898 8.3C66.6898 7.02 67.2098 5.78 68.2498 4.58C69.3098 3.36 70.6598 2.38 72.2998 1.64C73.9398 0.879999 75.5798 0.499998 77.2198 0.499998C78.7998 0.499998 80.1198 0.769998 81.1798 1.31C82.2398 1.85 83.0198 2.57 83.5198 3.47C84.0398 4.35 84.2998 5.33 84.2998 6.41C84.2998 7.71 83.9398 8.98 83.2198 10.22C82.5198 11.46 81.5098 12.48 80.1898 13.28C78.8698 14.06 77.3498 14.45 75.6298 14.45H75.4798L73.6498 23H69.3298L73.4098 3.92ZM90.247 26.42C89.507 26.42 88.857 26.36 88.297 26.24C87.737 26.12 87.247 25.83 86.827 25.37C86.427 24.91 86.227 24.2 86.227 23.24C86.227 21.9 86.627 20.1 87.427 17.84C88.247 15.58 89.317 13.31 90.637 11.03C89.637 11.09 88.847 11.24 88.267 11.48C87.687 11.72 87.307 12.09 87.127 12.59C87.207 12.59 87.287 12.69 87.367 12.89C87.467 13.09 87.517 13.3 87.517 13.52C87.517 13.88 87.357 14.17 87.037 14.39C86.717 14.59 86.317 14.69 85.837 14.69C85.277 14.69 84.827 14.54 84.487 14.24C84.147 13.94 83.977 13.51 83.977 12.95C83.977 12.27 84.237 11.65 84.757 11.09C85.297 10.53 86.037 10.09 86.977 9.77C87.917 9.43 88.957 9.26 90.097 9.26C90.517 9.26 91.037 9.29 91.657 9.35C93.297 6.75 95.027 4.63 96.847 2.99C98.687 1.33 100.437 0.499998 102.097 0.499998C103.057 0.499998 103.847 0.639998 104.467 0.919998L99.757 23H95.437L97.747 12.11C97.007 11.77 96.327 11.52 95.707 11.36C95.087 11.2 94.427 11.09 93.727 11.03C92.587 13.49 91.647 16.01 90.907 18.59C90.187 21.15 89.827 23.2 89.827 24.74C89.827 25.5 89.967 26.06 90.247 26.42ZM99.757 2.63C98.897 3.09 97.997 3.95 97.057 5.21C96.137 6.45 95.237 7.96 94.357 9.74C95.797 10.02 97.017 10.37 98.017 10.79L99.757 2.63ZM112.716 3.14H112.356C110.576 3.14 109.186 3.59 108.186 4.49C107.206 5.37 106.716 6.94 106.716 9.2C106.716 9.94 106.786 10.46 106.926 10.76C107.066 11.04 107.136 11.2 107.136 11.24C106.056 11.24 105.246 11.02 104.706 10.58C104.186 10.12 103.926 9.37 103.926 8.33C103.926 6.91 104.276 5.62 104.976 4.46C105.676 3.28 106.786 2.33 108.306 1.61C109.846 0.889999 111.796 0.53 114.156 0.53C115.476 0.53 116.896 0.649999 118.416 0.889999C119.696 1.11 120.836 1.22 121.836 1.22C123.116 1.22 124.276 1.01 125.316 0.589999C125.276 1.89 124.946 2.85 124.326 3.47C123.706 4.09 122.786 4.4 121.566 4.4C120.926 4.4 120.286 4.35 119.646 4.25C119.006 4.15 118.096 3.98 116.916 3.74L112.776 23H108.456L112.716 3.14ZM125.539 2.6C124.199 3.16 123.159 4 122.419 5.12C121.699 6.24 121.339 7.59 121.339 9.17C121.339 9.91 121.409 10.43 121.549 10.73C121.689 11.01 121.759 11.17 121.759 11.21C120.679 11.21 119.869 10.99 119.329 10.55C118.809 10.09 118.549 9.34 118.549 8.3C118.549 7.02 119.069 5.78 120.109 4.58C121.169 3.36 122.519 2.38 124.159 1.64C125.799 0.879999 127.439 0.499998 129.079 0.499998C129.359 0.499998 129.759 0.519999 130.279 0.559999L128.359 9.5H132.769L134.689 0.559999H139.009L134.239 23H129.919L132.319 11.72H127.909L125.509 23H121.189L125.539 2.6Z" fill="#0000CC"/>
</svg>
