<svg width="22" height="22" viewBox="0 0 22 22" fill="none" xmlns="http://www.w3.org/2000/svg">
<path d="M11 9.65338C12.7526 9.65338 14.1733 8.25054 14.1733 6.52005C14.1733 4.78956 12.7526 3.38672 11 3.38672C9.24741 3.38672 7.82666 4.78956 7.82666 6.52005C7.82666 8.25054 9.24741 9.65338 11 9.65338Z" fill="#F0F0FF"/>
<path d="M6.18684 6.8333H6.50684V6.54664C6.50879 5.71304 6.74396 4.89661 7.18577 4.18972C7.62758 3.48282 8.25839 2.91367 9.00684 2.54664C8.78527 2.03635 8.42962 1.59559 7.97767 1.2712C7.52571 0.946797 6.99434 0.750865 6.43998 0.704211C5.88561 0.657556 5.32897 0.76192 4.82915 1.00622C4.32934 1.25052 3.90503 1.62563 3.60128 2.09171C3.29753 2.55779 3.1257 3.09744 3.10402 3.65334C3.08234 4.20924 3.21163 4.76063 3.47816 5.24895C3.74468 5.73727 4.1385 6.14429 4.61776 6.42677C5.09703 6.70925 5.64386 6.85665 6.20018 6.8533L6.18684 6.8333ZM15.5068 6.51997V6.80664H15.8268C16.3757 6.80113 16.913 6.64775 17.3821 6.36263C17.8512 6.07752 18.2347 5.67122 18.4923 5.18651C18.75 4.70179 18.8722 4.15658 18.8461 3.60827C18.82 3.05996 18.6465 2.52883 18.344 2.07078C18.0415 1.61273 17.6211 1.2447 17.1271 1.00544C16.633 0.766171 16.0836 0.664517 15.5367 0.711175C14.9897 0.757832 14.4655 0.951074 14.0191 1.27056C13.5727 1.59005 13.2207 2.02397 13.0002 2.52664C13.7489 2.89223 14.3804 3.45995 14.8233 4.16562C15.2663 4.8713 15.503 5.6868 15.5068 6.51997ZM13.8602 9.96664C15.1857 10.229 16.4673 10.6779 17.6668 11.3C17.8358 11.3928 17.9889 11.5121 18.1202 11.6533H21.6668V9.37331C21.6675 9.28586 21.6442 9.19989 21.5996 9.1247C21.5549 9.0495 21.4906 8.98793 21.4135 8.94664C19.6856 8.04285 17.7635 7.57376 15.8135 7.57997H15.3735C15.1425 8.51912 14.6111 9.35714 13.8602 9.96664ZM3.35351 12.9466C3.35229 12.6109 3.44297 12.2812 3.61571 11.9933C3.78845 11.7054 4.03668 11.4702 4.33351 11.3133C5.53303 10.6912 6.81467 10.2423 8.14018 9.97997C7.39289 9.37566 6.86185 8.54519 6.62684 7.6133H6.18684C4.23686 7.6071 2.31474 8.07618 0.586843 8.97997C0.509755 9.02127 0.445413 9.08284 0.400766 9.15803C0.356119 9.23323 0.332863 9.31919 0.333509 9.40664V13.6666H3.35351V12.9466ZM13.3068 16.7933H17.2802V17.7266H13.3068V16.7933Z" fill="#F0F0FF"/>
<path d="M20.8737 13.1734H16.2937V12.5068C16.2937 12.33 16.2235 12.1604 16.0984 12.0354C15.9734 11.9103 15.8038 11.8401 15.627 11.8401C15.4502 11.8401 15.2806 11.9103 15.1556 12.0354C15.0306 12.1604 14.9604 12.33 14.9604 12.5068V13.1734H13.667V11.2868C12.7899 11.1026 11.8966 11.0066 11.0004 11.0001C8.8962 10.9913 6.8221 11.4996 4.96036 12.4801C4.87743 12.5231 4.80802 12.5882 4.75978 12.6682C4.71154 12.7482 4.68636 12.84 4.68702 12.9334V16.6734H9.42703V20.7334C9.42703 20.9103 9.49726 21.0798 9.62229 21.2048C9.74731 21.3299 9.91688 21.4001 10.0937 21.4001H20.8737C21.0505 21.4001 21.2201 21.3299 21.3451 21.2048C21.4701 21.0798 21.5404 20.9103 21.5404 20.7334V13.8401C21.5404 13.6633 21.4701 13.4937 21.3451 13.3687C21.2201 13.2437 21.0505 13.1734 20.8737 13.1734ZM20.207 20.0801H10.7604V14.5068H14.9604V15.1134C14.9604 15.2903 15.0306 15.4598 15.1556 15.5848C15.2806 15.7099 15.4502 15.7801 15.627 15.7801C15.8038 15.7801 15.9734 15.7099 16.0984 15.5848C16.2235 15.4598 16.2937 15.2903 16.2937 15.1134V14.5068H20.207V20.0801Z" fill="#F0F0FF"/>
</svg>
