<svg width="50" height="50" viewBox="0 0 50 50" fill="none" xmlns="http://www.w3.org/2000/svg">
<path d="M27.4998 17.4993C33.6598 17.4993 37.1573 21.4318 37.6648 26.1843H37.8198C41.7848 26.1843 44.9998 29.2768 44.9998 33.0918C44.9998 36.9068 41.7848 39.9993 37.8198 39.9993H17.1798C13.2148 39.9993 9.99976 36.9068 9.99976 33.0918C9.99976 29.2768 13.2148 26.1843 17.1798 26.1843H17.3348C17.8448 21.3993 21.3373 17.4993 27.4998 17.4993ZM9.50726 24.2493C9.60337 24.5265 9.59893 24.8286 9.49472 25.1028C9.39052 25.3771 9.19318 25.6059 8.93726 25.7493L8.73226 25.8393L6.72976 26.5293C6.43424 26.6327 6.11068 26.6214 5.82306 26.4978C5.53544 26.3741 5.30471 26.1469 5.1765 25.8613C5.04829 25.5757 5.03195 25.2523 5.13069 24.9552C5.22944 24.6581 5.43608 24.4089 5.70976 24.2568L5.91476 24.1668L7.91976 23.4768C8.23306 23.3693 8.57621 23.3905 8.87387 23.5358C9.17152 23.6811 9.39933 23.9386 9.50726 24.2518V24.2493ZM22.2998 13.7493C23.1298 14.1543 23.8623 14.6818 24.4823 15.2993C20.0773 16.2093 16.9073 19.1318 15.6248 23.1893L15.4623 23.7493L15.3473 24.2168L14.9323 24.2918C13.8232 24.5201 12.7645 24.947 11.8073 25.5518C10.8409 24.0466 10.3933 22.2667 10.5326 20.4834C10.6718 18.7002 11.3904 17.0114 12.5786 15.6744C13.7669 14.3375 15.3597 13.4257 17.1143 13.0782C18.8689 12.7306 20.6891 12.9663 22.2973 13.7493H22.2998ZM7.29226 14.1743L7.49976 14.2543L9.40476 15.1818C9.6856 15.3183 9.90516 15.555 10.0203 15.8453C10.1353 16.1355 10.1376 16.4584 10.0266 16.7503C9.91567 17.0421 9.69947 17.2819 9.42059 17.4224C9.14171 17.5628 8.82035 17.5939 8.51976 17.5093L8.30726 17.4293L6.40476 16.5018C6.12393 16.3653 5.90436 16.1286 5.78926 15.8383C5.67417 15.548 5.67189 15.2252 5.78287 14.9333C5.89385 14.6414 6.11006 14.4017 6.38893 14.2612C6.66781 14.1207 6.98917 14.0897 7.28976 14.1743H7.29226ZM24.9748 8.23679C25.238 8.36522 25.4477 8.58199 25.5674 8.84928C25.6872 9.11657 25.7092 9.4174 25.6298 9.69929L25.5498 9.90929L24.6223 11.8143C24.4857 12.0951 24.2491 12.3147 23.9588 12.4298C23.6685 12.5449 23.3457 12.5472 23.0538 12.4362C22.7619 12.3252 22.5222 12.109 22.3817 11.8301C22.2412 11.5512 22.2102 11.2299 22.2948 10.9293L22.3748 10.7168L23.3023 8.81179C23.3743 8.66385 23.4748 8.53158 23.598 8.42256C23.7212 8.31354 23.8648 8.22993 24.0204 8.1765C24.176 8.12308 24.3406 8.10091 24.5048 8.11126C24.669 8.1216 24.8296 8.16426 24.9773 8.23679H24.9748ZM15.4998 8.15679L15.5923 8.36179L16.2823 10.3668C16.3837 10.6619 16.3711 10.9843 16.2468 11.2706C16.1226 11.5569 15.8958 11.7864 15.6109 11.9139C15.3261 12.0414 15.0039 12.0578 14.7076 11.9598C14.4113 11.8618 14.1624 11.6565 14.0098 11.3843L13.9173 11.1793L13.2298 9.17679C13.1299 8.88235 13.1434 8.56127 13.2676 8.27622C13.3917 7.99118 13.6176 7.76264 13.9012 7.63521C14.1848 7.50778 14.5057 7.49061 14.8013 7.58705C15.0969 7.68349 15.3459 7.88662 15.4998 8.15679Z" fill="#57C7FF"/>
</svg>
